# xmcd CD database file
#
# Track frame offsets:
#	150
#	27806
#	62857
#	92315
#	121182
#	139514
#	168216
#	190305
#	221622
#	262782
#
# Disc length: 3944 seconds
#
# Revision: 0
# Processed by: cddbd v1.5.1PL0 Copyright (c) Steve Scherf et al.
# Submitted via: CDex 1.50
#
DISCID=7b0f660a
DTITLE=Viva Creole - cariba
DYEAR=2004
DGENRE=Jazz
TTITLE0=Mama Leni
TTITLE1=Skokiaan
TTITLE2=Tu Piti
TTITLE3=Goin' down to Mardi Gras
TTITLE4=Tu as cale le monteur
TTITLE5=Laughing Samba
TTITLE6=Rum and Coca Cola
TTITLE7=Quand motait tu piti
TTITLE8=Isle of Capri
TTITLE9=Caldonia
EXTD=YEAR: 2004
EXTT0=
EXTT1=
EXTT2=
EXTT3=
EXTT4=
EXTT5=
EXTT6=
EXTT7=
EXTT8=
EXTT9=
PLAYORDER=
